<?xml version="1.0" encoding="UTF-8"?>
<svg width="820px" height="609px" viewBox="0 0 820 609" version="1.1" xmlns="http://www.w3.org/2000/svg" xmlns:xlink="http://www.w3.org/1999/xlink">
    <title>Group</title>
    <g id="Page-1" stroke="none" stroke-width="1" fill="none" fill-rule="evenodd">
        <g id="logo-white" transform="translate(-104.000000, -242.000000)">
            <g id="Group" transform="translate(121.000000, 258.000000)">
                <g id="heartbeat" transform="translate(59.000000, 0.000000)" fill-rule="nonzero">
                    <path d="M379.613263,22.428667 C404.496858,8.28485595 433.354417,0.3232989 464.104768,0.6579291 L464.104768,0.6579291 L464.104,0.659 L465.458341,0.6781078 C511.097851,1.5428976 552.088375,20.9862883 581.724368,51.6154161 L582.628038,52.5565287 C612.744844,84.1616506 630.848589,127.417997 629.743459,174.255915 C625.145493,368.832073 393.701925,539.544826 347.79387,571.074305 C342.789701,574.514325 336.991784,576.231604 331.194946,576.231604 C325.39811,576.231604 319.600193,574.514325 314.601705,571.07821 C268.687968,539.544826 37.2443992,368.832073 32.6464193,174.255341 C31.5413036,127.417997 49.6450489,84.16165 79.7618551,52.5565281 C109.755898,21.0802361 151.636288,1.1649517 198.283698,0.6579447 C229.032852,0.3205848 257.888092,8.28117431 282.770522,22.4243232 C301.445794,33.0393295 317.881492,47.1430752 331.198309,63.8408499 C344.509192,47.1413304 360.941665,33.0415852 379.613263,22.428667 Z" id="heart" stroke="#FFFFFF" stroke-width="32" fill="#EE85B5" stroke-linejoin="round"></path>
                    <path d="M329.32002,445.722095 C321.102685,445.722095 314.042651,439.874951 312.516431,431.789013 L270.762671,209.996802 L226.335497,315.578931 C223.747997,321.729297 217.825049,325.807642 211.159204,326.035059 C204.483253,326.262475 198.302564,322.588427 195.305714,316.630103 L183.429492,293.024219 L17.0967044,293.024219 C7.65637239,293.024219 0,285.367846 0,275.927514 C0,266.482129 7.65637239,258.83081 17.0967044,258.83081 L193.966479,258.83081 C200.394799,258.83081 206.277319,262.434107 209.19331,268.154908 L261.292017,144.354151 C264.218115,137.39519 271.364063,133.180396 278.858716,133.983935 C286.363477,134.782422 292.453198,140.402148 293.853076,147.820996 L328.278956,330.709741 L342.525366,245.135254 C343.894922,236.887598 351.025708,230.843359 359.384546,230.843359 L415.182568,230.843359 C420.964013,230.843359 426.356323,233.764404 429.509839,238.605859 L455.708276,278.818237 L467.008374,265.072143 C470.25791,261.120142 475.104419,258.83081 480.218775,258.83081 L645.303296,258.83081 C654.743628,258.83081 662.394947,266.487182 662.394947,275.927514 C662.394947,285.367846 654.743628,293.024219 645.303296,293.024219 L488.299659,293.024219 L467.326758,318.540405 C463.87002,322.745092 458.609107,325.054638 453.176367,324.75647 C447.733521,324.458301 442.765723,321.58274 439.794141,317.019238 L405.924169,265.036768 L373.873535,265.036768 L346.184253,431.430201 C344.824805,439.607104 337.790039,445.631128 329.501953,445.717042 C329.441309,445.717042 329.375611,445.722095 329.32002,445.722095 L329.32002,445.722095 Z" id="beat" fill="#FFFFFF"></path>
                </g>
                <path d="M80,276 L0,276 M786,276 L706,276" id="beats" stroke="#FFFFFF" stroke-width="34" stroke-linecap="round" stroke-linejoin="bevel"></path>
            </g>
        </g>
    </g>
</svg>